<svg width="35" height="24" viewBox="0 0 35 24" fill="none" xmlns="http://www.w3.org/2000/svg">
<g clip-path="url(#clip0_3_1182)">
<path d="M0.426601 12.6325L10.6641 22.9083C10.9396 23.1724 11.3074 23.3181 11.689 23.3144C12.0706 23.3106 12.4355 23.1576 12.7057 22.8881C12.9759 22.6187 13.1299 22.2541 13.1346 21.8726C13.1394 21.491 12.9946 21.1227 12.7313 20.8466L5.03676 13.1247L33.5399 13.1247C33.7388 13.1369 33.9381 13.1083 34.1255 13.0405C34.3129 12.9728 34.4845 12.8674 34.6296 12.7309C34.7748 12.5944 34.8904 12.4296 34.9695 12.2466C35.0486 12.0637 35.0894 11.8666 35.0894 11.6673C35.0894 11.468 35.0486 11.2709 34.9695 11.0879C34.8904 10.905 34.7748 10.7402 34.6296 10.6037C34.4845 10.4672 34.3129 10.3618 34.1255 10.2941C33.9381 10.2263 33.7388 10.1977 33.5399 10.2099L4.92192 10.2099L12.7258 2.49346C12.8743 2.36149 12.9943 2.20061 13.0784 2.02067C13.1626 1.84073 13.2091 1.64551 13.2152 1.44696C13.2213 1.24841 13.1868 1.0507 13.1139 0.86594C13.0409 0.681175 12.931 0.513239 12.7909 0.372404C12.6509 0.231569 12.4835 0.120802 12.2991 0.046875C12.1148 -0.0270519 11.9172 -0.0625801 11.7187 -0.0575371C11.5201 -0.052494 11.3246 -0.00698471 11.1442 0.0762043C10.9638 0.159393 10.8023 0.278513 10.6696 0.426277L0.432072 10.5653C0.29615 10.701 0.188316 10.8621 0.114742 11.0394C0.0411644 11.2168 0.00329208 11.4069 0.00329208 11.5989C0.00329208 11.7909 0.0411644 11.9811 0.114742 12.1584C0.188316 12.3358 0.29615 12.4969 0.432072 12.6325H0.426601Z" fill="black"/>
</g>
<defs>
<clipPath id="clip0_3_1182">
<rect width="35" height="23.3352" fill="white" transform="translate(35 23.335) rotate(-180)"/>
</clipPath>
</defs>
</svg>
